<?xml version="1.0" encoding="utf-8"?>
<svg version="1.1" xmlns="http://www.w3.org/2000/svg" xmlns:xlink="http://www.w3.org/1999/xlink" x="0px" y="0px"
	 viewBox="150 220 1080 1200" style="enable-background:new 0 0 1400 1555.56;" xml:space="preserve">
<g id="Background">
	<g>
		<rect transform="matrix(-1 -1.224647e-16 1.224647e-16 -1 1400 1555.56)" style="fill:#E6D3BF;" width="1400" height="1555.56"/>
		<linearGradient id="SVGID_1_" gradientUnits="userSpaceOnUse" x1="700" y1="1841.71" x2="700" y2="-45.82">
			<stop  offset="0.1775" style="stop-color:#DCC7B4;stop-opacity:0.5"/>
			<stop  offset="1" style="stop-color:#FFFFFF;stop-opacity:0"/>
		</linearGradient>
		<polygon style="fill:url(#SVGID_1_);" points="0,0 1400,0 1400,1555.56 0,1555.56 		"/>
	</g>
</g>
<g id="Graphic_Elements">
	<g>
		<g>
			
				<linearGradient id="SVGID_00000018197411010265926080000012644216886883332266_" gradientUnits="userSpaceOnUse" x1="700.14" y1="1263.50" x2="700.14" y2="664.49">
				<stop  offset="0.2172" style="stop-color:#D1AEA3;stop-opacity:0.5"/>
				<stop  offset="1" style="stop-color:#FFFFFF;stop-opacity:0"/>
			</linearGradient>
			
				<path style="fill:url(#SVGID_00000018197411010265926080000012644216886883332266_);stroke:#6D6258;stroke-width:2;stroke-miterlimit:10;" d="
				M750.44,915.49H649.84c-24.07,7.26-42.01,35.22-42.01,68.62v280.98c0,5.31,1.31,8.43,3.65,10.27
				c8.24,6.84,44.80,11.21,88.66,11.21c48.77,0,88.52-5.41,90.33-13.60c1.24-1.86,1.98-4.39,1.98-7.89V984.11
				C792.45,950.71,774.51,922.75,750.44,915.49z"/>
			<path style="fill:#ECECEC;stroke:#6D6258;stroke-width:2;stroke-linejoin:round;stroke-miterlimit:10;" d="M757.36,660.24
				c0-4.40-26.42-6.73-59-6.73s-59,2.33-59,6.73c0,0.16-3.87,230.71-4.25,253.61c-0.02,1.01,0.61,1.83,1.39,1.83
				h123.73c0.78,0,1.40-0.82,1.39-1.83C761.22,890.95,757.36,660.40,757.36,660.24z"/>
		</g>
		<g>
			
				<linearGradient id="SVGID_00000142154437655951940820000006856817094141248936_" gradientUnits="userSpaceOnUse" x1="1104.57" y1="1280.50" x2="1104.57" y2="1007.74">
				<stop  offset="0.1775" style="stop-color:#D1AEA3;stop-opacity:0.5"/>
				<stop  offset="0.4559" style="stop-color:#DFC7BF;stop-opacity:0.3308"/>
				<stop  offset="1" style="stop-color:#FFFFFF;stop-opacity:0"/>
			</linearGradient>
			
				<path style="fill:url(#SVGID_00000142154437655951940820000006856817094141248936_);stroke:#6D6258;stroke-width:2;stroke-miterlimit:10;" d="
				M1207.25,1102.14c-10.16,5.84-52.27,10.23-102.68,10.23c-50.42,0-92.53-4.38-102.68-10.23
				c-1.53,0.71-2.34,1.45-2.34,2.21c0,0.21,0,162.23,0,162.23h0.05c-0.03,0.20-0.05,0.41-0.05,0.62
				c0,11.24,47.02,20.36,105.02,20.36c58,0,105.02-9.11,105.02-20.36c0-0.21-0.02-0.41-0.05-0.62h0.05
				c0,0,0-162.02,0-162.23C1209.59,1103.59,1208.78,1102.85,1207.25,1102.14z"/>
			<g>
				<path style="fill:#ECECEC;stroke:#6D6258;stroke-width:2;stroke-linejoin:round;stroke-miterlimit:10;" d="M1209.59,1003.16
					c0,5.79-47.02,10.49-105.02,10.49c-58,0-105.02-4.69-105.02-10.49c0,0,0,96.03,0,96.24
					c0,7.15,47.02,12.95,105.02,12.95c58,0,105.02-5.80,105.02-12.95C1209.59,1099.19,1209.59,1003.16,1209.59,1003.16z
					"/>
				
					<ellipse style="fill:#ECECEC;stroke:#6D6258;stroke-width:2;stroke-linejoin:round;stroke-miterlimit:10;" cx="1104.57" cy="1003.16" rx="105.02" ry="10.49"/>
			</g>
		</g>
		<g>
			<path style="fill:#ECECEC;stroke:#6D6258;stroke-width:2;stroke-linejoin:round;stroke-miterlimit:10;" d="M206.13,502.93
				h9.06c16.71-6.68,47.67-11.15,83.13-11.13c35.26,0.02,66.08,4.49,82.84,11.13h9.03c1.41,0,2.56-1.41,2.56-3.16
				c0,0,0-158.65,0-159.33c0-9.03-42.35-16.36-94.59-16.36s-94.59,7.33-94.59,16.36c0,0.69,0,159.33,0,159.33
				C203.57,501.52,204.72,502.93,206.13,502.93z"/>
			
				<linearGradient id="SVGID_00000034789761953764260180000007317657965191614876_" gradientUnits="userSpaceOnUse" x1="298.16" y1="1266.89" x2="298.16" y2="334.95">
				<stop  offset="0.1775" style="stop-color:#D1AEA3;stop-opacity:0.5"/>
				<stop  offset="0.4262" style="stop-color:#D2B0A6;stop-opacity:0.3488"/>
				<stop  offset="0.5831" style="stop-color:#D7B8AE;stop-opacity:0.2534"/>
				<stop  offset="0.7146" style="stop-color:#DEC5BD;stop-opacity:0.1735"/>
				<stop  offset="0.832" style="stop-color:#E8D7D2;stop-opacity:0.1021"/>
				<stop  offset="0.939" style="stop-color:#F6EEEC;stop-opacity:0.0371"/>
				<stop  offset="1" style="stop-color:#FFFFFF;stop-opacity:0"/>
			</linearGradient>
			
				<path style="fill:url(#SVGID_00000034789761953764260180000007317657965191614876_);stroke:#6D6258;stroke-width:2;stroke-miterlimit:10;" d="
				M394.58,514.62c0.01-12.47-43.09-22.59-96.27-22.64c-53.17-0.04-96.28,10.04-96.28,22.51
				c0,0.39-0.30,747.74-0.30,748.17c-0.01,13.85,43.09,25.10,96.27,25.15c53.17,0.04,96.28-11.17,96.29-25.02
				C394.28,1262.30,394.58,515.01,394.58,514.62z"/>
		</g>
	</g>
</g>
</svg>