<svg width="34" height="34" viewBox="0 0 664 730" fill="none" xmlns="http://www.w3.org/2000/svg">
<path d="M224.261 122.789C224.261 63.2587 272.497 15 332 15C391.503 15 439.739 63.2587 439.739 122.789V178.011L487.12 150.6C538.741 120.737 604.788 138.442 634.567 190.127C664.29 241.713 646.634 307.636 595.113 337.442L547.478 365L595.113 392.558C646.634 422.364 664.29 488.287 634.567 539.873C604.788 591.558 538.741 609.264 487.12 579.4L439.739 551.989V607.211C439.739 666.741 391.503 715 332 715C272.497 715 224.261 666.741 224.261 607.211V551.989L176.88 579.4C125.26 609.263 59.2125 591.558 29.4326 539.873C-0.290107 488.287 17.3658 422.364 68.8875 392.558L116.522 365L68.8874 337.442C17.3657 307.636 -0.290074 241.713 29.4326 190.127C59.2125 138.442 125.26 120.737 176.88 150.6L224.261 178.011V122.789Z" stroke="#92B956" stroke-width="30" stroke-linecap="round" stroke-linejoin="round"/>
</svg>