<svg width="20" height="20" viewBox="0 0 20 20" fill="none" xmlns="http://www.w3.org/2000/svg">
<path d="M1.8633 14.455C1.0053 11.023 0.5763 9.308 1.4773 8.154C2.3783 7 4.1473 7 7.6843 7H12.3143C15.8523 7 17.6203 7 18.5213 8.154C19.4223 9.308 18.9933 11.024 18.1353 14.455C17.5893 16.638 17.3173 17.729 16.5033 18.365C15.6893 19 14.5643 19 12.3143 19H7.6843C5.4343 19 4.3093 19 3.4953 18.365C2.6813 17.729 2.4083 16.638 1.8633 14.455Z" stroke="black" stroke-width="1.5"/>
<path d="M17.5 7.5L16.79 4.895C16.516 3.89 16.379 3.388 16.098 3.009C15.8178 2.63246 15.4373 2.3424 15 2.172C14.56 2 14.04 2 13 2M2.5 7.5L3.21 4.895C3.484 3.89 3.621 3.388 3.902 3.009C4.18218 2.63246 4.56269 2.3424 5 2.172C5.44 2 5.96 2 7 2" stroke="black" stroke-width="1.5"/>
<path d="M7 2C7 1.73478 7.10536 1.48043 7.29289 1.29289C7.48043 1.10536 7.73478 1 8 1H12C12.2652 1 12.5196 1.10536 12.7071 1.29289C12.8946 1.48043 13 1.73478 13 2C13 2.26522 12.8946 2.51957 12.7071 2.70711C12.5196 2.89464 12.2652 3 12 3H8C7.73478 3 7.48043 2.89464 7.29289 2.70711C7.10536 2.51957 7 2.26522 7 2Z" stroke="black" stroke-width="1.5"/>
</svg>
