<svg width="80" height="80" viewBox="0 0 80 80" fill="none" xmlns="http://www.w3.org/2000/svg">
<path d="M40 0C17.956 0 0 17.956 0 40C0 62.044 17.956 80 40 80C62.044 80 80 62.044 80 40C80 17.956 62.044 0 40 0ZM40 8C57.7205 8 72 22.2795 72 40C72 56.0579 60.2613 69.2521 44.875 71.5938V49.5391H54.1875L55.6484 40.0781H44.875V34.9062C44.875 30.9742 46.1559 27.4844 49.8359 27.4844H55.7422V19.2266C54.7022 19.0866 52.5074 18.7812 48.3594 18.7812C39.6954 18.7812 34.6172 23.3572 34.6172 33.7812V40.0781H25.7109V49.5391H34.6172V71.5156C19.4812 68.9634 8 55.8809 8 40C8 22.2795 22.2795 8 40 8Z" fill="black"/>
</svg>
