<svg width="80" height="80" viewBox="0 0 80 80" fill="none" xmlns="http://www.w3.org/2000/svg">
<path d="M40 0C17.908 0 0 17.908 0 40C0 62.092 17.908 80 40 80C62.092 80 80 62.092 80 40C80 17.908 62.092 0 40 0ZM40 8C57.672 8 72 22.328 72 40C72 57.672 57.672 72 40 72C37.0575 72 34.222 71.5719 31.5156 70.8281C32.3669 69.1131 33.1305 67.3058 33.5469 65.7031C34.0069 63.9431 35.8906 56.7656 35.8906 56.7656C37.1146 59.1016 40.692 61.0859 44.5 61.0859C55.832 61.0859 64 50.6629 64 37.7109C64 25.2909 53.8681 16 40.8281 16C24.6081 16 16 26.8862 16 38.7422C16 44.2542 18.933 51.1167 23.625 53.3047C24.337 53.6367 24.7188 53.4927 24.8828 52.8047C25.0108 52.2807 25.6457 49.7271 25.9297 48.5391C26.0217 48.1631 25.9799 47.8329 25.6719 47.4609C24.1199 45.5769 22.875 42.1186 22.875 38.8906C22.875 30.5986 29.1518 22.5781 39.8438 22.5781C49.0757 22.5781 55.5391 28.8712 55.5391 37.8672C55.5391 48.0312 50.4066 55.0703 43.7266 55.0703C40.0386 55.0703 37.2683 52.0252 38.1562 48.2812C39.2163 43.8133 41.2734 38.9896 41.2734 35.7656C41.2734 32.8816 39.7314 30.4766 36.5234 30.4766C32.7514 30.4766 29.7188 34.3736 29.7188 39.6016C29.7188 42.9296 30.8438 45.1797 30.8438 45.1797C30.8438 45.1797 27.1215 60.9274 26.4375 63.8594C26.0985 65.3063 25.9854 67.0206 25.9766 68.7344C15.3431 63.5325 8 52.6346 8 40C8 22.328 22.328 8 40 8Z" fill="black"/>
</svg>
